# xmcd
#
# Track frame offsets:
#	150
#	14321
#	28345
#	42314
#	59664
#	74799
#	90731
#
# Disc length: 1416 seconds
#
# Revision: 0
# Processed by: cddbd v1.5.2PL0 Copyright (c) Steve Scherf et al.
# Submitted via: dBpowerAMP V4.0
#
DISCID=66058607
DTITLE=Damian Marshall - Built to Last
DYEAR=2006
DGENRE=Country
TTITLE0=That's What Love Is
TTITLE1=Where I'm Running From
TTITLE2=Why Don't We
TTITLE3=I Know What Love Is
TTITLE4=Built To Last
TTITLE5=Inside Out
TTITLE6=Not Even A Little
EXTD=
EXTT0=
EXTT1=
EXTT2=
EXTT3=
EXTT4=
EXTT5=
EXTT6=
PLAYORDER=
